<?xml version="1.0" standalone="no"?>
<svg viewBox="0 0 200 200" xmlns="http://www.w3.org/2000/svg">
  <path fill="#FFD6E8" d="M43,-63.4C57.5,-57.7,72.1,-48.6,79.6,-35.4C87.2,-22.1,87.8,-4.7,83,10.2C78.2,25.2,68,37.7,56.9,47.7C45.7,57.8,33.6,65.4,20.9,67.2C8.3,69,-4.8,64.9,-18,61.1C-31.3,57.4,-44.7,53.8,-54.4,45.5C-64.2,37.2,-70.4,24.1,-75.1,9.1C-79.8,-5.8,-83.1,-22.6,-77.4,-35.4C-71.6,-48.2,-56.9,-56.9,-42.5,-62.6C-28.1,-68.3,-14.1,-71,0.1,-71.2C14.3,-71.3,28.6,-69,43,-63.4Z" transform="translate(100 100)" />
</svg>
