<?xml version="1.0" standalone="no"?>
<svg viewBox="0 0 200 200" xmlns="http://www.w3.org/2000/svg">
  <path fill="#B4D1D9" d="M48.7,-64.8C60.8,-58.1,66.9,-40.9,71.2,-24C75.5,-7.1,77.9,9.5,71.9,21.9C65.9,34.4,51.4,42.6,38,49.5C24.6,56.5,12.3,62.2,-3.6,67.2C-19.6,72.2,-39.1,76.5,-54.7,70.2C-70.3,64,-81.9,47.2,-86.6,29C-91.3,10.8,-89.1,-8.7,-82.9,-26.7C-76.8,-44.7,-66.6,-61.2,-52.1,-67.1C-37.6,-73.1,-18.8,-68.5,-0.3,-68.1C18.2,-67.7,36.5,-71.5,48.7,-64.8Z" transform="translate(100 100)" />
</svg>
